<svg width="20" height="21" viewBox="0 0 20 21" fill="none" xmlns="http://www.w3.org/2000/svg">
<g clip-path="url(#clip0_1109_248)">
<path d="M11.3615 8.58319C10.8458 8.58319 10.4463 8.97293 10.4463 9.45411C10.4463 9.93529 10.8458 10.325 11.3615 10.325C11.8325 10.325 12.232 9.93529 12.232 9.45411C12.232 8.97293 11.8325 8.58319 11.3615 8.58319ZM5.11147 8.58319C4.59584 8.58319 4.19629 8.97293 4.19629 9.45411C4.19629 9.93529 4.59584 10.325 5.11147 10.325C5.58245 10.325 5.982 9.93529 5.982 9.45411C5.982 8.97293 5.58245 8.58319 5.11147 8.58319Z" fill="#3A4045"/>
<path d="M18.5265 6.92842C17.4938 5.54179 16.0046 4.5427 14.3077 4.09794V4.10012C13.926 3.68643 13.4952 3.30541 13.0131 2.96575C9.35908 0.374776 4.22961 1.16513 1.5622 4.72936C-0.587352 7.62515 -0.495834 11.5203 1.69613 14.2877L1.71399 17.1747C1.71399 17.2444 1.72515 17.3141 1.74747 17.3794C1.77555 17.4667 1.82098 17.5477 1.88118 17.6178C1.94138 17.6879 2.01515 17.7457 2.09829 17.788C2.18142 17.8302 2.27229 17.8561 2.36568 17.8641C2.45907 17.872 2.55316 17.862 2.64256 17.8345L5.46845 16.9657C6.21622 17.2248 6.98854 17.3729 7.7564 17.4142L7.74524 17.423C9.73408 18.836 12.3412 19.2606 14.7318 18.4898L17.5689 19.3912C17.6403 19.413 17.714 19.4261 17.7899 19.4261C18.185 19.4261 18.5042 19.1147 18.5042 18.7293V15.8118C20.4707 13.2077 20.522 9.60866 18.5265 6.92842ZM5.78095 15.4198L5.51309 15.311L3.30327 15.9859L3.28095 13.7216L3.10238 13.5256C1.21399 11.2786 1.08899 8.04101 2.85685 5.66559C5.00863 2.78721 9.13363 2.15144 12.0756 4.22858C15.0265 6.32095 15.6805 10.3381 13.5488 13.199C11.7609 15.5919 8.55997 16.4758 5.78095 15.4198ZM17.0533 15.0497L16.8747 15.2674L16.897 17.5318L14.7095 16.8133L14.4417 16.9222C13.1917 17.3751 11.8591 17.4121 10.6247 17.0746L10.6202 17.0724C12.3167 16.5649 13.7987 15.5343 14.8435 14.1352C16.5488 11.8426 16.8256 8.96201 15.8345 6.50602L15.8479 6.51473C16.3613 6.87399 16.8323 7.32251 17.2318 7.86465C18.8524 10.0332 18.7609 12.9856 17.0533 15.0497Z" fill="#3A4045"/>
<path d="M8.23647 8.58319C7.72084 8.58319 7.32129 8.97293 7.32129 9.45411C7.32129 9.93529 7.72084 10.325 8.23647 10.325C8.70745 10.325 9.107 9.93529 9.107 9.45411C9.107 8.97293 8.70745 8.58319 8.23647 8.58319Z" fill="#3A4045"/>
</g>
<defs>
<clipPath id="clip0_1109_248">
<rect width="20" height="19.5085" fill="white" transform="translate(0 0.810242)"/>
</clipPath>
</defs>
</svg>